# xmcd
#
# Track frame offsets: 
#        150
#        18976
#        37702
#        54220
#        70073
#        86973
#        105417
#        120598
#        135051
#        152583
#        172363
#        191623
#        206037
#        224032
#        238166
#        259348
#        274045
#        292084
#        311782
#        331392
#
# Disc length: 4700 seconds
#
# Revision: 0
# Processed by: cddbd v1.5.2PL0 Copyright (c) Steve Scherf et al.
# Submitted via: ExactAudioCopy v0.95a4
#
DISCID=2a125a14
DTITLE=Various Artist - R&B Lovesongs 2009 [CD2 Of 2)
DYEAR=2009
DGENRE=R&B
TTITLE0=Jennifer Hudson/Spotlight
TTITLE1=Mario/Let Me Love You
TTITLE2=T.I./Whatever You Like
TTITLE3=Britney Spears/Piece Of Me
TTITLE4=Estelle Feat. Sean Paul/Come Over
TTITLE5=Alicia Keys/No One
TTITLE6=Ironik/Stay With Me
TTITLE7=Kevin Lyttle/Turn Me On
TTITLE8=Sean Paul/Like Glue
TTITLE9=Jagged Edge/Let's Get Married
TTITLE10=Omarion/Ice Box
TTITLE11=Donell Jones/Shorty (Got Her Eyes On Me)
TTITLE12=Angie Stone/Wish I Didn't Miss You
TTITLE13=Jamelia/Thank You
TTITLE14=En Vogue/My Lovin (You're Never Gonna Get It)
TTITLE15=R. Kelly/I Believe I Can Fly
TTITLE16=Anthony Hamilton/Comin' From Where I'm From
TTITLE17=D'Angelo/Brown Sugar
TTITLE18=Anita Baker/Sweet Love
TTITLE19=Whitney Houston/It's Not Right But It's Okay
EXTD=
EXTT0=
EXTT1=
EXTT2=
EXTT3=
EXTT4=
EXTT5=
EXTT6=
EXTT7=
EXTT8=
EXTT9=
EXTT10=
EXTT11=
EXTT12=
EXTT13=
EXTT14=
EXTT15=
EXTT16=
EXTT17=
EXTT18=
EXTT19=
PLAYORDER=
